<svg width="20" height="20" viewBox="0 0 20 20" fill="none" xmlns="http://www.w3.org/2000/svg">
<path d="M20 10C20 15.5228 15.5228 20 10 20C4.47715 20 0 15.5228 0 10C0 4.47715 4.47715 0 10 0C15.5228 0 20 4.47715 20 10Z" fill="#265EF1"/>
<path d="M16 10C16 13.3137 13.3137 16 10 16C6.68629 16 4 13.3137 4 10C4 6.68629 6.68629 4 10 4C13.3137 4 16 6.68629 16 10Z" fill="white"/>
<path d="M8 8.5C8 8.22386 8.22386 8 8.5 8H11.5C11.7761 8 12 8.22386 12 8.5V11.5C12 11.7761 11.7761 12 11.5 12H8.5C8.22386 12 8 11.7761 8 11.5V8.5Z" fill="#265EF1"/>
</svg>
